<?xml version="1.0" encoding="UTF-8"?>
<svg width="32" height="32" viewBox="0 0 32 32" fill="none" xmlns="http://www.w3.org/2000/svg">
  <!-- Background circle with gradient -->
  <circle cx="16" cy="16" r="16" fill="url(#gradient)"/>
  
  <!-- Microphone icon -->
  <path d="M16 20c2.21 0 4-1.79 4-4V8c0-2.21-1.79-4-4-4s-4 1.79-4 4v8c0 2.21 1.79 4 4 4zm-2-12c0-1.1.9-2 2-2s2 .9 2 2v8c0 1.1-.9 2-2 2s-2-.9-2-2V8z" fill="white"/>
  <path d="M20 12v4c0 2.21-1.79 4-4 4s-4-1.79-4-4h-2c0 3.31 2.69 6 6 6s6-2.69 6-6v-4h-2z" fill="white"/>
  <path d="M16 24c4.42 0 8-3.58 8-8h-2c0 3.31-2.69 6-6 6s-6-2.69-6-6H8c0 4.42 3.58 8 8 8z" fill="white"/>
  
  <!-- Gradient definition -->
  <defs>
    <linearGradient id="gradient" x1="0" y1="0" x2="32" y2="32" gradientUnits="userSpaceOnUse">
      <stop offset="0%" stop-color="#3B82F6"/> <!-- Blue-600 -->
      <stop offset="100%" stop-color="#9333EA"/> <!-- Purple-600 -->
    </linearGradient>
  </defs>
</svg> 